<svg xmlns="http://www.w3.org/2000/svg" xmlns:xlink="http://www.w3.org/1999/xlink" width="54" height="50.925" viewBox="0 0 54 50.925">
  <defs>
    <clipPath id="clip-path">
      <rect id="Rectangle_2394" data-name="Rectangle 2394" width="54" height="50.925" transform="translate(0 0)" fill="#717171"/>
    </clipPath>
  </defs>
  <g id="Device_PC_icon" transform="translate(0 0)">
    <g id="Group_5787" data-name="Group 5787" clip-path="url(#clip-path)">
      <path id="Path_2902" data-name="Path 2902" d="M49.611,0H4.415A4.42,4.42,0,0,0,0,4.415V35.088A4.42,4.42,0,0,0,4.415,39.5H19.566V45.42h-2.39a2.715,2.715,0,1,0,0,5.429H36.853a2.715,2.715,0,1,0,0-5.429h-2.39V39.5H49.611a4.419,4.419,0,0,0,4.414-4.414V4.415A4.42,4.42,0,0,0,49.611,0M43.163,36.788a1.23,1.23,0,1,1,1.228-1.229,1.227,1.227,0,0,1-1.228,1.229m5.43.3a1.524,1.524,0,1,1,1.522-1.524,1.524,1.524,0,0,1-1.522,1.524m1.813-4.588H3.619V4.415a.8.8,0,0,1,.8-.8h45.2a.8.8,0,0,1,.795.8Z" fill="#717171"/>
    </g>
  </g>
</svg>
