<svg id="logo" xmlns="http://www.w3.org/2000/svg" xmlns:xlink="http://www.w3.org/1999/xlink" width="146.18" height="41.361" viewBox="0 0 146.18 41.361">
  <defs>
    <clipPath id="clip-path">
      <rect id="Rectangle_1" data-name="Rectangle 1" width="146.18" height="41.361" fill="none"/>
    </clipPath>
  </defs>
  <g id="Group_6" data-name="Group 6" clip-path="url(#clip-path)">
    <path id="Path_16" data-name="Path 16" d="M298.489,29.918s-1.775-8.672-2.935-13.868c-1.139-5.105-1.67-7.684-1.67-8.954a8.529,8.529,0,0,1,1.459-5.233A4.183,4.183,0,0,1,299.271,0a4.809,4.809,0,0,1,3.943,1.94,7.677,7.677,0,0,1,1.565,4.976,31.582,31.582,0,0,1-1.057,9.015c-1.241,5.018-2.98,13.986-2.98,13.986Zm-2.424,7.736a3.663,3.663,0,1,1,1.073,2.635,3.564,3.564,0,0,1-1.073-2.635" transform="translate(-200.409 -0.001)" fill="#efa211"/>
    <path id="Path_17" data-name="Path 17" d="M32.995,35.45a15.377,15.377,0,0,1-5.029,9.913,15.76,15.76,0,0,1-10.624,3.522q-7.791,0-12.566-5.089T0,30.409q0-8.634,4.86-13.772T17.872,11.5a15.947,15.947,0,0,1,10.552,3.4,13.225,13.225,0,0,1,4.667,9.286H24.553a6.5,6.5,0,0,0-2.376-3.847,7.557,7.557,0,0,0-4.595-1.29,7.093,7.093,0,0,0-6.03,3.015q-2.219,3.015-2.219,8.249,0,5.21,2.1,8.092a6.883,6.883,0,0,0,5.909,2.882,7.558,7.558,0,0,0,4.908-1.5,6.714,6.714,0,0,0,2.3-4.341Z" transform="translate(0 -7.842)" fill="#717171"/>
    <path id="Path_18" data-name="Path 18" d="M139.309,49.758V14.23h12.518l4.679,17.293q.627,2.292,1.134,4.45t.893,4.209q.458-2.171,1.037-4.546t1.327-5.1l4.414-16.3H177.8V49.758h-8.3V34.008q0-1.664.085-4.667t.253-6.934l-6.825,27.351H154l-6.681-27.351q.168,4.728.265,8.5t.1,5.9V49.758Z" transform="translate(-94.999 -9.704)" fill="#717171"/>
    <path id="Path_19" data-name="Path 19" d="M362.675,48.324V12.8h9.841l6.705,11.674q1.64,2.846,3.111,5.644t2.773,5.523q-.193-4.028-.289-7.549t-.1-6.2V12.8H393.5V48.324h-9.816l-6.971-12.011q-1.23-2.122-2.677-4.763t-3.063-5.7q.265,3.473.386,6.464t.121,5.306V48.324Z" transform="translate(-247.319 -8.726)" fill="#717171"/>
  </g>
</svg>
