<svg id="work_PC_icon" xmlns="http://www.w3.org/2000/svg" xmlns:xlink="http://www.w3.org/1999/xlink" width="46.207" height="43.576" viewBox="0 0 46.207 43.576">
  <defs>
    <clipPath id="clip-path">
      <rect id="Rectangle_1740" data-name="Rectangle 1740" width="46.207" height="43.576" fill="#efa211"/>
    </clipPath>
  </defs>
  <g id="Group_4913" data-name="Group 4913" transform="translate(0 0)" clip-path="url(#clip-path)">
    <path id="Path_1468" data-name="Path 1468" d="M42.452,1.026H3.778A3.782,3.782,0,0,0,0,4.8V31.05a3.782,3.782,0,0,0,3.778,3.777H16.742v5.064H14.7a2.323,2.323,0,1,0,0,4.646H31.535a2.323,2.323,0,1,0,0-4.646H29.49V34.828H42.452a3.782,3.782,0,0,0,3.777-3.777V4.8a3.782,3.782,0,0,0-3.777-3.778M36.934,32.505a1.052,1.052,0,1,1,1.051-1.052,1.05,1.05,0,0,1-1.051,1.052m4.646.252a1.3,1.3,0,1,1,1.3-1.3,1.3,1.3,0,0,1-1.3,1.3m1.551-3.926H3.1V4.8a.681.681,0,0,1,.681-.68H42.452a.681.681,0,0,1,.68.68Z" transform="translate(0 -1.026)" fill="#efa211"/>
  </g>
</svg>
