<svg xmlns="http://www.w3.org/2000/svg" xmlns:xlink="http://www.w3.org/1999/xlink" width="40" height="45" viewBox="0 0 40 45">
  <defs>
    <clipPath id="clip-path">
      <rect id="Rectangle_1739" data-name="Rectangle 1739" width="40" height="45" fill="#efa211"/>
    </clipPath>
  </defs>
  <g id="work_adult_icon" clip-path="url(#clip-path)">
    <path id="Path_1465" data-name="Path 1465" d="M0,41.82a6.076,6.076,0,0,1,2.971-2.634c3.1-1.475,6.2-2.957,9.314-4.425a1.455,1.455,0,0,1,2.046.789c.579,1.29,1.086,2.612,1.653,3.908.692,1.583,1.415,3.153,2.232,4.685q.071-1.111.142-2.22c.036-.574.092-1.146.107-1.721a4.319,4.319,0,0,0-.4-2.391c-.576-1.016-1.017-2.112-1.511-3.175-.378-.811-.015-1.419.846-1.42q2.549,0,5.1,0c.84,0,1.206.585.853,1.371-.573,1.276-1.172,2.54-1.722,3.827a2.624,2.624,0,0,0-.2,1.1c.063,1.574.171,3.145.269,4.826.292-.583.58-1.089.808-1.621,1-2.34,1.985-4.691,2.988-7.031a1.58,1.58,0,0,1,2.253-.913q2.333,1.054,4.644,2.159c1.561.744,3.12,1.494,4.664,2.276a5.854,5.854,0,0,1,2.358,1.84A11.143,11.143,0,0,1,40,42.169V51.82H0Z" transform="translate(0 -6.936)" fill="#efa211"/>
    <path id="Path_1466" data-name="Path 1466" d="M23.589,0a1.565,1.565,0,0,0,.4.112,8.668,8.668,0,0,1,5.358,1.752,6.961,6.961,0,0,1,2.621,4.188,10.476,10.476,0,0,1-.177,4.093c-.082.464-.17.929-.227,1.4a.491.491,0,0,0,.146.333,2.853,2.853,0,0,1,.571,2.475,3.243,3.243,0,0,1-.315,1.191,3.367,3.367,0,0,1-.907,1.07,1.845,1.845,0,0,0-.81,1.074A7.668,7.668,0,0,1,24.085,23.6a6.253,6.253,0,0,1-5.331-1.523,7.859,7.859,0,0,1-2.9-4.722,1.09,1.09,0,0,0-.585-.6A2.384,2.384,0,0,1,13.967,14.6a13.926,13.926,0,0,1,0-1.748.722.722,0,0,1,.146-.478c.845-.723.365-1.592.22-2.377a8.383,8.383,0,0,1,.982-6.515A7.512,7.512,0,0,1,20.07.365,18.983,18.983,0,0,1,22.282.112,1.208,1.208,0,0,0,22.569,0Z" transform="translate(-3.192 0)" fill="#efa211"/>
    <path id="Path_1467" data-name="Path 1467" d="M0,56.731H40a2.4,2.4,0,0,1-.51.112q-12.662.008-25.326,0-6.857,0-13.711,0A1.937,1.937,0,0,1,0,56.731" transform="translate(0 -11.847)" fill="#efa211"/>
  </g>
</svg>
