<svg xmlns="http://www.w3.org/2000/svg" xmlns:xlink="http://www.w3.org/1999/xlink" width="46.678" height="46.42" viewBox="0 0 46.678 46.42">
  <defs>
    <clipPath id="clip-path">
      <rect id="Rectangle_3714" data-name="Rectangle 3714" width="46.678" height="46.42" fill="#efa211"/>
    </clipPath>
  </defs>
  <g id="work_family_icon" clip-path="url(#clip-path)">
    <path id="Path_6831" data-name="Path 6831" d="M156.634,0a5.53,5.53,0,0,1,5.605,5.544A5.57,5.57,0,0,1,151.1,5.6,5.5,5.5,0,0,1,156.634,0" transform="translate(-122.853 -0.001)" fill="#efa211"/>
    <path id="Path_6832" data-name="Path 6832" d="M44.986.007A5.493,5.493,0,0,1,50.44,5.682,5.57,5.57,0,1,1,44.986.007" transform="translate(-31.954 -0.005)" fill="#efa211"/>
    <path id="Path_6833" data-name="Path 6833" d="M149.752,70.659c-1.562-1.567-3.142-3.115-4.7-4.686a5.294,5.294,0,0,0-3.951-1.606c-2.181.008-4.362-.008-6.543,0a7.119,7.119,0,0,0-1.3.129c-2.413.462-3.5,2.6-5.316,4.061,3.165.719,4.815,2.573,5.116,5.659,1.978-.743,3.492-.376,4.4,1.007.928,1.407.669,2.893-.763,4.352-.982,1-2.005,1.965-2.929,3.017a2.484,2.484,0,0,0-.592,1.45c-.062,2.273-.013,4.548-.032,6.823s-.088,4.543-.088,6.815a1.063,1.063,0,0,0,.468.771,2.309,2.309,0,0,0,3.421-2.1c.053-2.678.014-5.359.022-8.038,0-.391.047-.783.071-1.165h1.616v1.09c0,2.648-.012,5.3.006,7.945a2.366,2.366,0,1,0,4.715-.077c.018-2.648,0-5.3.008-7.945,0-.331.031-.663.053-1.1h2.936c-.992-5.3-1.962-10.472-2.932-15.647l.263-.174c.9.935,1.782,1.885,2.7,2.8a2.4,2.4,0,0,0,3.625.167c.983-1.019.881-2.387-.284-3.555" transform="translate(-104.028 -52.333)" fill="#efa211"/>
    <path id="Path_6834" data-name="Path 6834" d="M17.531,96.083c0-3.8-.053-7.6.03-11.4a3.745,3.745,0,0,0-1.173-2.848c-1.4-1.52-3.171-2.6-3.514-4.874a3.119,3.119,0,0,1,1.118-2.619,3.355,3.355,0,0,1,3.714-.219,5.9,5.9,0,0,1,4.987-5.7c-.955-.967-1.822-1.858-2.7-2.734a4.993,4.993,0,0,0-3.63-1.46c-2.306-.011-4.617-.1-6.914.036a5.2,5.2,0,0,0-2.941.949c-2.095,1.8-4.028,3.8-5.947,5.8A2.117,2.117,0,0,0,.67,74a2.39,2.39,0,0,0,3.115.434c.242-.152,3.4-3.538,3.4-3.538a2.239,2.239,0,0,1,.142.52,5.169,5.169,0,0,1,.019.84q.007,11.637.02,23.274A5.56,5.56,0,0,0,7.529,97a2.207,2.207,0,0,0,2.189,1.57,2.184,2.184,0,0,0,2.2-1.541,4.5,4.5,0,0,0,.162-1.286c.012-3.864.007-7.727.007-11.591,0-.09-.009-.184-.017-.279a.985.985,0,0,1,.987-.935.919.919,0,0,1,.732.983l0,0c-.009.1-.017.2-.017.3,0,3.926-.01,7.852.007,11.778A2.307,2.307,0,0,0,16.3,98.567c1.084-.056,1.367-.394,1.255-1.457a9.792,9.792,0,0,1-.026-1.027" transform="translate(0 -52.192)" fill="#efa211"/>
    <path id="Path_6835" data-name="Path 6835" d="M93.889,125.038a1.831,1.831,0,0,0,.506-1.69c-.189-1.012-1.385-1.328-1.385-1.328a1.6,1.6,0,0,0-1.273.1,1.82,1.82,0,0,0-.632.5l-1.426,1.471h0c-1.171,1.217-2.28,2.49-4.124,2.671-2.108.206-3.4-1.184-4.574-2.342l-1.661-1.637c-.093-.108-.185-.216-.272-.322a.77.77,0,0,0-.358-.27,1.682,1.682,0,0,0-2.2.262.913.913,0,0,0-.083.1,1.335,1.335,0,0,0-.119.181c-.836,1.092.65,2.834.65,2.834l.557.589c.11.127.227.25.35.37l.3.315.039.006a20.547,20.547,0,0,1,1.943,2.027,2.549,2.549,0,0,1,.58,1.456c.045,4.359.021,8.719.029,13.08a1.9,1.9,0,0,0,1.992,2.086,1.856,1.856,0,0,0,1.9-2.061c.015-1.651-.023-3.3.027-4.951.011-.365-.066-1.029.454-1.029.614,0,.5.64.5,1.06.023,1.65-.008,3.3.016,4.951a1.939,1.939,0,0,0,2.336,2c1.051-.169,1.606-.929,1.609-2.271.008-4.236.024-8.471-.015-12.706a2.332,2.332,0,0,1,.792-1.871q1.823-1.742,3.544-3.59" transform="translate(-61.814 -99.124)" fill="#efa211"/>
    <path id="Path_6836" data-name="Path 6836" d="M101.868,98.775a4.3,4.3,0,1,0,4.3-4.3,4.3,4.3,0,0,0-4.3,4.3" transform="translate(-82.824 -76.813)" fill="#efa211"/>
  </g>
</svg>
