<svg xmlns="http://www.w3.org/2000/svg" xmlns:xlink="http://www.w3.org/1999/xlink" width="40" height="45" viewBox="0 0 40 45">
  <defs>
    <clipPath id="clip-path">
      <rect id="Rectangle_1736" data-name="Rectangle 1736" width="40" height="45" fill="#efa211"/>
    </clipPath>
  </defs>
  <g id="work_child_icon" clip-path="url(#clip-path)">
    <path id="Path_1453" data-name="Path 1453" d="M35.529,35.627c-2.019,0-4.037,0-6.056,0-1.881.009-2.855-.778-2.354-2.843.872-3.593,1.651-7.215,2.681-10.759a5.74,5.74,0,0,1,5.762-4.273A5.751,5.751,0,0,1,41.3,22.065c1.027,3.545,1.809,7.166,2.677,10.759.447,1.849-.307,2.782-2.13,2.8-2.106.016-4.213,0-6.318.007" transform="translate(-5.821 -3.265)" fill="#efa211"/>
    <path id="Path_1454" data-name="Path 1454" d="M14.036,30.434H3.246a13.192,13.192,0,0,1-.069,3.308,2.847,2.847,0,0,1-1.613,1.674c-.329.113-1.471-.887-1.478-1.394A94,94,0,0,1,.327,21.577c.388-3.225,3.489-4.145,6.36-2.74a4.976,4.976,0,0,0,3.886-.007c2.773-1.347,5.878-.563,6.281,2.5a91.562,91.562,0,0,1,.306,12.706c0,.5-1,1.383-1.524,1.374A2.2,2.2,0,0,1,14.106,34a16.049,16.049,0,0,1-.07-3.564" transform="translate(0 -3.346)" fill="#efa211"/>
    <path id="Path_1455" data-name="Path 1455" d="M14.744,5.289a5.228,5.228,0,0,1-5.288,5.205A5.258,5.258,0,0,1,4.4,5.05a5.172,5.172,0,0,1,10.341.238" transform="translate(-0.949 0)" fill="#efa211"/>
    <path id="Path_1456" data-name="Path 1456" d="M36.518,0a5.2,5.2,0,0,1,5.13,5.346A5.173,5.173,0,1,1,36.518,0" transform="translate(-6.752 0)" fill="#efa211"/>
    <path id="Path_1457" data-name="Path 1457" d="M4.374,40.1H8.454c-.23,3.641-.375,7.2-.758,10.733-.061.566-1.184,1.01-1.816,1.511-.5-.746-1.4-1.47-1.438-2.24-.163-3.224-.069-6.461-.069-10" transform="translate(-0.937 -7.372)" fill="#efa211"/>
    <path id="Path_1458" data-name="Path 1458" d="M12.39,40.1h4.085c0,3.485.1,6.887-.08,10.273-.036.7-1.093,1.337-1.678,2-.563-.6-1.55-1.152-1.62-1.807-.359-3.38-.484-6.788-.707-10.469" transform="translate(-2.672 -7.372)" fill="#efa211"/>
    <path id="Path_1459" data-name="Path 1459" d="M31.275,44.507h3.76c-.1,2.379-.058,4.612-.377,6.789-.1.7-1.165,1.25-1.788,1.868-.532-.714-1.441-1.385-1.522-2.149a64.423,64.423,0,0,1-.073-6.508" transform="translate(-6.736 -8.183)" fill="#efa211"/>
    <path id="Path_1460" data-name="Path 1460" d="M39.7,44.477c.868-.069,1.46-.158,2.05-.151a16.185,16.185,0,0,1,1.725.22,64.208,64.208,0,0,1-.075,6.49c-.077.75-1.023,1.4-1.572,2.1-.617-.729-1.638-1.387-1.771-2.2a56.061,56.061,0,0,1-.358-6.463" transform="translate(-8.562 -8.15)" fill="#efa211"/>
    <path id="Path_1461" data-name="Path 1461" d="M24.769,13.97c.282-3.7,1.08-4.556,4.576-5.1.289,3.244-.81,4.516-4.576,5.1" transform="translate(-5.342 -1.632)" fill="#efa211"/>
    <path id="Path_1462" data-name="Path 1462" d="M44.95,8.833c3.7.578,4.5,1.441,4.745,4.916-3.352-.01-4.462-1.112-4.745-4.916" transform="translate(-9.695 -1.624)" fill="#efa211"/>
  </g>
</svg>
